<?xml version="1.0" encoding="UTF-8" standalone="no"?>
<!DOCTYPE svg PUBLIC "-//W3C//DTD SVG 1.1//EN"
 "http://www.w3.org/Graphics/SVG/1.1/DTD/svg11.dtd">
<!-- Generated by graphviz version 2.43.0 (0)
 -->
<!-- Title: %3 Pages: 1 -->
<svg width="668pt" height="260pt"
 viewBox="0.00 0.00 667.95 260.00" xmlns="http://www.w3.org/2000/svg" xmlns:xlink="http://www.w3.org/1999/xlink">
<g id="graph0" class="graph" transform="scale(1 1) rotate(0) translate(4 256)">
<title>%3</title>
<polygon fill="white" stroke="transparent" points="-4,4 -4,-256 663.95,-256 663.95,4 -4,4"/>
<!-- [root] aws_instance.thinknyxserver (expand) -->
<g id="node1" class="node">
<title>[root] aws_instance.thinknyxserver (expand)</title>
<polygon fill="none" stroke="black" points="441.98,-108 217.98,-108 217.98,-72 441.98,-72 441.98,-108"/>
<text text-anchor="middle" x="329.98" y="-86.3" font-family="Times,serif" font-size="14.00">aws_instance.thinknyxserver</text>
</g>
<!-- [root] provider[&quot;registry.opentofu.org/hashicorp/aws&quot;] -->
<g id="node2" class="node">
<title>[root] provider[&quot;registry.opentofu.org/hashicorp/aws&quot;]</title>
<polygon fill="none" stroke="black" points="329.98,-36 0.02,-18 329.98,0 659.93,-18 329.98,-36"/>
<text text-anchor="middle" x="329.98" y="-14.3" font-family="Times,serif" font-size="14.00">provider[&quot;registry.opentofu.org/hashicorp/aws&quot;]</text>
</g>
<!-- [root] aws_instance.thinknyxserver (expand)&#45;&gt;[root] provider[&quot;registry.opentofu.org/hashicorp/aws&quot;] -->
<g id="edge1" class="edge">
<title>[root] aws_instance.thinknyxserver (expand)&#45;&gt;[root] provider[&quot;registry.opentofu.org/hashicorp/aws&quot;]</title>
<path fill="none" stroke="black" d="M329.98,-71.7C329.98,-63.98 329.98,-54.71 329.98,-46.11"/>
<polygon fill="black" stroke="black" points="333.48,-46.1 329.98,-36.1 326.48,-46.1 333.48,-46.1"/>
</g>
<!-- [root] provider[&quot;registry.opentofu.org/hashicorp/aws&quot;] (close) -->
<g id="node3" class="node">
<title>[root] provider[&quot;registry.opentofu.org/hashicorp/aws&quot;] (close)</title>
<ellipse fill="none" stroke="black" cx="329.98" cy="-162" rx="295.15" ry="18"/>
<text text-anchor="middle" x="329.98" y="-158.3" font-family="Times,serif" font-size="14.00">[root] provider[&quot;registry.opentofu.org/hashicorp/aws&quot;] (close)</text>
</g>
<!-- [root] provider[&quot;registry.opentofu.org/hashicorp/aws&quot;] (close)&#45;&gt;[root] aws_instance.thinknyxserver (expand) -->
<g id="edge2" class="edge">
<title>[root] provider[&quot;registry.opentofu.org/hashicorp/aws&quot;] (close)&#45;&gt;[root] aws_instance.thinknyxserver (expand)</title>
<path fill="none" stroke="black" d="M329.98,-143.7C329.98,-135.98 329.98,-126.71 329.98,-118.11"/>
<polygon fill="black" stroke="black" points="333.48,-118.1 329.98,-108.1 326.48,-118.1 333.48,-118.1"/>
</g>
<!-- [root] root -->
<g id="node4" class="node">
<title>[root] root</title>
<ellipse fill="none" stroke="black" cx="329.98" cy="-234" rx="58.49" ry="18"/>
<text text-anchor="middle" x="329.98" y="-230.3" font-family="Times,serif" font-size="14.00">[root] root</text>
</g>
<!-- [root] root&#45;&gt;[root] provider[&quot;registry.opentofu.org/hashicorp/aws&quot;] (close) -->
<g id="edge3" class="edge">
<title>[root] root&#45;&gt;[root] provider[&quot;registry.opentofu.org/hashicorp/aws&quot;] (close)</title>
<path fill="none" stroke="black" d="M329.98,-215.7C329.98,-207.98 329.98,-198.71 329.98,-190.11"/>
<polygon fill="black" stroke="black" points="333.48,-190.1 329.98,-180.1 326.48,-190.1 333.48,-190.1"/>
</g>
</g>
</svg>
